<svg xmlns="http://www.w3.org/2000/svg" viewBox="0 0 2048 1536">
  <defs>
    <radialGradient id="vig" cx="50%" cy="46%" r="75%">
      <stop offset="55%" stop-color="#000" stop-opacity="0"/>
      <stop offset="100%" stop-color="#000" stop-opacity="0.42"/>
    </radialGradient>
  </defs>

  <!-- 墙与地面 -->
  <rect width="2048" height="1536" fill="#5d4c38"/>
  <rect y="0" width="2048" height="110" fill="#352a1e"/>
  <rect y="1140" width="2048" height="396" fill="#372f28"/>
  <g fill="#2d2620">
    <rect y="1220" width="2048" height="8"/><rect y="1330" width="2048" height="8"/><rect y="1440" width="2048" height="8"/>
  </g>

  <!-- 书架（热区 260,500,360,500） -->
  <g>
    <rect x="228" y="400" width="424" height="720" fill="#3a2e20"/>
    <rect x="248" y="420" width="384" height="680" fill="#2c2318"/>
    <!-- 四层书 -->
    <g>
      <rect x="248" y="566" width="384" height="14" fill="#3a2e20"/>
      <rect x="248" y="736" width="384" height="14" fill="#3a2e20"/>
      <rect x="248" y="906" width="384" height="14" fill="#3a2e20"/>
      <!-- 第一层书脊 -->
      <g>
        <rect x="262" y="446" width="34" height="120" fill="#3E5C4B"/><rect x="300" y="452" width="28" height="114" fill="#8C3B2E"/>
        <rect x="332" y="440" width="40" height="126" fill="#a98e6f"/><rect x="376" y="456" width="26" height="110" fill="#4a5a66"/>
        <rect x="406" y="446" width="36" height="120" fill="#6b5a3f"/><rect x="446" y="452" width="30" height="114" fill="#3E5C4B"/>
        <rect x="480" y="442" width="42" height="124" fill="#8C3B2E"/><rect x="526" y="454" width="28" height="112" fill="#a98e6f"/>
        <rect x="558" y="446" width="36" height="120" fill="#4a5a66"/><rect x="598" y="452" width="26" height="114" fill="#6b5a3f"/>
      </g>
      <!-- 第二层：中间一格空位+灰尘剪影 -->
      <g>
        <rect x="262" y="616" width="38" height="120" fill="#6b5a3f"/><rect x="304" y="622" width="30" height="114" fill="#3E5C4B"/>
        <rect x="338" y="612" width="34" height="124" fill="#8C3B2E"/>
        <rect x="386" y="630" width="96" height="106" fill="#241d14"/>
        <rect x="398" y="700" width="72" height="30" fill="#41372b"/>
        <rect x="496" y="618" width="30" height="118" fill="#a98e6f"/><rect x="530" y="624" width="36" height="112" fill="#4a5a66"/>
        <rect x="570" y="616" width="28" height="120" fill="#3E5C4B"/><rect x="602" y="622" width="22" height="114" fill="#8C3B2E"/>
      </g>
      <!-- 第三层 -->
      <g>
        <rect x="262" y="788" width="30" height="118" fill="#4a5a66"/><rect x="296" y="782" width="40" height="124" fill="#6b5a3f"/>
        <rect x="340" y="792" width="26" height="114" fill="#3E5C4B"/><rect x="370" y="786" width="34" height="120" fill="#8C3B2E"/>
        <rect x="408" y="780" width="44" height="126" fill="#a98e6f"/><rect x="456" y="790" width="28" height="116" fill="#4a5a66"/>
        <rect x="488" y="784" width="36" height="122" fill="#6b5a3f"/><rect x="528" y="792" width="30" height="114" fill="#3E5C4B"/>
        <rect x="562" y="786" width="38" height="120" fill="#8C3B2E"/><rect x="604" y="794" width="22" height="112" fill="#a98e6f"/>
      </g>
      <!-- 第四层：横放的卷宗 -->
      <g fill="#a98e6f">
        <rect x="268" y="1040" width="160" height="22"/><rect x="268" y="1014" width="150" height="22"/>
        <rect x="268" y="988" width="166" height="22"/>
      </g>
      <g fill="#8a7558">
        <rect x="470" y="1040" width="150" height="22"/><rect x="470" y="1014" width="140" height="22"/>
      </g>
    </g>
  </g>

  <!-- 墙上相框：三棵水杉幼苗（第三章伏笔） -->
  <g transform="rotate(2 950 530)">
    <rect x="830" y="420" width="240" height="200" fill="#3a2e20"/>
    <rect x="848" y="438" width="204" height="164" fill="#d8c8a8"/>
    <g fill="#5a6b4f">
      <polygon points="890,580 906,470 922,580"/>
      <polygon points="938,580 952,450 966,580"/>
      <polygon points="984,580 1000,468 1016,580"/>
    </g>
    <rect x="848" y="566" width="204" height="36" fill="#b9a982"/>
  </g>

  <!-- 窗（午后，水杉树影） -->
  <g>
    <rect x="1300" y="260" width="520" height="560" fill="#2e2418"/>
    <rect x="1322" y="282" width="476" height="516" fill="#dcc9a0"/>
    <g fill="#b0a079">
      <polygon points="1380,798 1412,360 1444,798"/>
      <polygon points="1560,798 1596,320 1632,798"/>
      <polygon points="1700,798 1726,400 1752,798"/>
    </g>
    <g fill="#2e2418">
      <rect x="1552" y="282" width="18" height="516"/>
      <rect x="1322" y="520" width="476" height="18"/>
    </g>
    <rect x="1290" y="800" width="540" height="20" fill="#2e2418"/>
    <!-- 半拉的窗帘 -->
    <polygon points="1300,260 1470,260 1420,820 1300,820" fill="#8C3B2E" opacity="0.88"/>
    <polygon points="1316,260 1360,260 1340,820 1310,820" fill="#76301f" opacity="0.9"/>
  </g>
  <polygon points="1380,1140 1800,1140 1980,1480 1300,1480" fill="#e8dcc0" opacity="0.08"/>

  <!-- 办公桌 -->
  <g>
    <rect x="600" y="846" width="950" height="44" fill="#7a6248"/>
    <rect x="620" y="890" width="910" height="270" fill="#5b4732"/>
    <rect x="660" y="920" width="240" height="100" fill="#4a3826"/>
    <rect x="660" y="1040" width="240" height="100" fill="#4a3826"/>
    <rect x="1250" y="920" width="240" height="220" fill="#4a3826"/>
    <circle cx="780" cy="970" r="10" fill="#b08d3f"/>
    <circle cx="780" cy="1090" r="10" fill="#b08d3f"/>
    <circle cx="1370" cy="1030" r="10" fill="#b08d3f"/>
  </g>
  <!-- 桌后的椅背 -->
  <g>
    <rect x="1030" y="690" width="180" height="36" rx="14" fill="#3a2e20"/>
    <rect x="1044" y="726" width="22" height="124" fill="#3a2e20"/>
    <rect x="1174" y="726" width="22" height="124" fill="#3a2e20"/>
    <rect x="1080" y="744" width="80" height="14" fill="#3a2e20"/>
    <rect x="1080" y="788" width="80" height="14" fill="#3a2e20"/>
  </g>

  <!-- 桌面：绿罩台灯 -->
  <g>
    <rect x="1400" y="760" width="14" height="90" fill="#8a7032"/>
    <path d="M 1330 760 q 77 -58 154 0 z" fill="#3E5C4B"/>
    <ellipse cx="1407" cy="762" rx="76" ry="12" fill="#7FD4C1" opacity="0.5"/>
    <ellipse cx="1407" cy="846" rx="44" ry="8" fill="#1c1a17" opacity="0.5"/>
  </g>
  <!-- 借阅证（热区 700,880,200,140） -->
  <g transform="rotate(-3 800 950)">
    <rect x="706" y="892" width="190" height="118" rx="8" fill="#e8dcc0"/>
    <rect x="722" y="910" width="60" height="78" fill="#a98e6f"/>
    <g stroke="#8a7558" stroke-width="6">
      <line x1="798" y1="922" x2="876" y2="922"/><line x1="798" y1="950" x2="868" y2="950"/>
      <line x1="798" y1="978" x2="876" y2="978"/>
    </g>
  </g>
  <!-- 借阅单堆（热区 1050,850,300,200） -->
  <g>
    <rect x="1062" y="900" width="250" height="130" fill="#d8c8a8" transform="rotate(3 1187 965)"/>
    <rect x="1056" y="884" width="250" height="130" fill="#e8dcc0" transform="rotate(-4 1181 949)"/>
    <rect x="1070" y="870" width="250" height="130" fill="#dccfae" transform="rotate(1 1195 935)"/>
    <g stroke="#a59777" stroke-width="5" transform="rotate(1 1195 935)">
      <line x1="1100" y1="906" x2="1290" y2="906"/><line x1="1100" y1="936" x2="1270" y2="936"/>
      <line x1="1100" y1="966" x2="1290" y2="966"/>
    </g>
    <circle cx="1300" cy="880" r="9" fill="#8C3B2E"/>
  </g>
  <!-- 茶杯 -->
  <g>
    <rect x="966" y="900" width="64" height="56" rx="8" fill="#e8dcc0"/>
    <path d="M 1030 912 q 30 16 0 34" fill="none" stroke="#e8dcc0" stroke-width="10"/>
    <ellipse cx="998" cy="900" rx="32" ry="8" fill="#6b5a3f"/>
  </g>

  <ellipse cx="1080" cy="1180" rx="430" ry="30" fill="#000" opacity="0.22"/>
  <rect width="2048" height="1536" fill="url(#vig)"/>
</svg>
